# xmcd
# 
# Track frame offsets:
#     150
#     16449
#     36622
#     48506
#     67085
#     84222
#     98140
#     114026
#     127198
#     145475
#     162913
#     179651
# 
# Disc length: 2668
# 
# Revision: 3
# Processed by: cddbd v1.5.2PL0 Copyright (c) Steve Scherf et al.
# Submitted via: fre:ac v1.0.31
# 
DISCID=ab0a6a0c
DTITLE=Jim Brickman - Escape
DYEAR=2006
DGENRE=New Age
TTITLE0=Waterfall
TTITLE1=Escape (featuring Marc Antoine)
TTITLE2=Paradise
TTITLE3=Barcelona
TTITLE4=Never Alone (featuring Sara Evans)
TTITLE5=Awakening
TTITLE6=Winter Waltz (featuring David Klinkenberg)
TTITLE7=Big Sky
TTITLE8=When It Snows (featuring Geoff Byrd)
TTITLE9=Timeless
TTITLE10=First Light
TTITLE11=My Angel (featuring Gerald Levert)
EXTD=YEAR: 2006
EXTT0=
EXTT1=
EXTT2=
EXTT3=
EXTT4=
EXTT5=
EXTT6=
EXTT7=
EXTT8=
EXTT9=
EXTT10=
EXTT11=
PLAYORDER=
